<svg width="79" height="79" viewBox="0 0 79 79" fill="none" xmlns="http://www.w3.org/2000/svg">
<g clip-path="url(#clip0_4_356)">
<path d="M74.6165 21.4071C74.154 20.5015 73.653 19.6151 73.1135 18.7577C72.892 18.382 72.6511 18.0062 72.4006 17.6401C71.7359 16.6382 71.0326 15.6651 70.2715 14.7402C63.2482 6.02134 52.6024 0.346829 40.6176 0C40.2418 0 39.8757 0 39.5 0C38.8641 0 38.2379 0.0192683 37.6117 0.0385366C26.0315 0.587683 15.7615 6.11768 8.89232 14.5283C8.15049 15.4339 7.4472 16.378 6.78244 17.3511C5.925 18.6324 5.12537 19.9523 4.42207 21.33C3.86329 22.3994 3.36232 23.488 2.89988 24.6056C1.66671 27.65 0.79 30.8871 0.346829 34.259C0.11561 35.9739 0 37.7177 0 39.5C0 41.2823 0.11561 43.0261 0.346829 44.741C0.973049 49.4521 2.4278 53.903 4.56659 57.9301C5.02902 58.8165 5.53 59.6835 6.05988 60.5313C8.22756 63.9804 10.9251 67.0633 14.0273 69.6838C17.5823 72.6896 21.6768 75.0789 26.1471 76.6782C28.4593 77.5163 30.8774 78.1426 33.3727 78.5279C34.5384 78.711 35.7234 78.8362 36.9277 78.9133C37.7755 78.9711 38.6329 79 39.5 79H39.9913C41.0607 78.9807 42.1205 78.9326 43.1706 78.8266C46.9568 78.4798 50.5889 77.6031 53.9801 76.2639H54.009C57.6218 74.8188 60.9841 72.8727 63.9804 70.493C67.7762 67.4968 71.0133 63.8069 73.4893 59.6257C74.0384 58.7105 74.5394 57.776 75.0115 56.8126C77.5645 51.5909 79 45.714 79 39.5C79 32.9777 77.42 26.8311 74.6165 21.4071ZM72.0827 58.0361C71.8996 58.354 71.7166 58.672 71.5335 58.9802C70.9651 59.9148 70.3582 60.8204 69.7127 61.6971C68.6337 63.1615 67.4583 64.5391 66.1866 65.8301C65.676 66.3504 65.1557 66.8513 64.6259 67.333C59.1248 72.2946 52.1496 75.657 44.4327 76.6685C44.2207 76.6974 44.0184 76.7263 43.8065 76.7456C42.949 76.8419 42.082 76.9094 41.2052 76.9383C41.0029 76.9576 40.8006 76.9576 40.5983 76.9672C40.2418 76.9768 39.8757 76.9865 39.5096 76.9865C38.2861 76.9865 37.0722 76.9287 35.8776 76.813C34.654 76.6974 33.4401 76.5144 32.2455 76.2832C24.8754 74.8381 18.2856 71.2349 13.141 66.1577C12.245 65.2713 11.3972 64.3465 10.5976 63.3734C10.4049 63.1326 10.2026 62.8917 10.0099 62.6412C9.22951 61.6585 8.49732 60.6277 7.82293 59.5583C7.28341 58.7201 6.78244 57.8531 6.32 56.9667C4.59549 53.7104 3.34305 50.165 2.64939 46.4173C2.58195 46.0512 2.51451 45.6755 2.45671 45.2901C2.27366 44.1629 2.14841 43.0068 2.08098 41.8411C2.0328 41.0704 2.0039 40.29 2.0039 39.5C2.0039 35.0201 2.78427 30.7329 4.22939 26.754C4.64366 25.5883 5.11573 24.4515 5.65524 23.3435C6.62829 21.3107 7.77476 19.3646 9.09463 17.5534C9.79793 16.5804 10.5398 15.6459 11.3298 14.7499C11.7344 14.2874 12.1583 13.8346 12.5822 13.4011C12.7941 13.1795 13.0061 12.9579 13.2277 12.7556C15.6266 10.3952 18.3338 8.36244 21.2915 6.715C21.8213 6.41634 22.3705 6.12732 22.9196 5.85756C27.3513 3.67061 32.284 2.3411 37.4961 2.06171C38.1609 2.02317 38.8352 2.0039 39.5096 2.0039C39.7119 2.0039 39.9143 2.0039 40.107 2.01354C40.29 2.01354 40.4634 2.01354 40.6368 2.02317C40.791 2.02317 40.9451 2.02317 41.0993 2.0328C50.7238 2.43744 59.4041 6.46451 65.8109 12.7941C66.0421 13.0157 66.2637 13.247 66.4852 13.4685C66.9188 13.931 67.3523 14.3934 67.7666 14.8751C67.7762 14.8751 67.7859 14.904 67.7955 14.9137H67.8051C68.5951 15.8289 69.3466 16.773 70.0499 17.7654C70.0595 17.7654 70.0691 17.7943 70.0788 17.8039C70.599 18.5361 71.0904 19.2779 71.5528 20.0583C71.6202 20.1835 71.6973 20.2991 71.7551 20.4148C72.2176 21.1662 72.6415 21.937 73.0365 22.7366C73.0943 22.8618 73.1617 22.9774 73.2195 23.1027C73.7783 24.2491 74.2793 25.4341 74.7224 26.6384C75.0885 27.6404 75.4161 28.6616 75.6955 29.7021C76.5337 32.8332 76.9865 36.1088 76.9865 39.5C76.9865 44.9144 75.84 50.0687 73.759 54.722C73.6916 54.8665 73.6241 55.0206 73.5567 55.1651C73.181 56.0033 72.7667 56.8126 72.3139 57.6122C72.2368 57.7663 72.1598 57.9012 72.0827 58.0361Z" fill="white"/>
<path d="M75.6955 29.7021C75.4161 28.6616 75.0885 27.6404 74.7224 26.6384C74.2889 25.4341 73.7879 24.2491 73.2195 23.1027C73.1713 22.9774 73.1039 22.8618 73.0461 22.7366C72.6511 21.937 72.2272 21.1662 71.7648 20.4148C71.7069 20.2992 71.6299 20.1835 71.5624 20.0679C71.1 19.2779 70.6087 18.5361 70.0884 17.8039H70.0788C70.0788 17.8039 70.0788 17.775 70.0595 17.7654C69.3562 16.7731 68.6048 15.8289 67.8051 14.9137C67.7955 14.904 67.7859 14.8848 67.7762 14.8751C67.3523 14.3934 66.9284 13.9213 66.4852 13.4685C66.2637 13.247 66.0421 13.0157 65.8109 12.7941C59.4041 6.46452 50.7238 2.43744 41.0993 2.03281C40.9451 2.02317 40.791 2.02317 40.6368 2.02317C40.4634 2.01354 40.29 2.01354 40.1069 2.01354C39.9143 2.00391 39.7119 2.00391 39.5096 2.00391C38.8352 2.00391 38.1609 2.02317 37.4961 2.06171C32.284 2.3411 27.3513 3.67061 22.9196 5.85756C22.3705 6.13695 21.831 6.41635 21.2915 6.715C18.3338 8.36244 15.6266 10.3952 13.2277 12.7556C13.0061 12.9676 12.7941 13.1891 12.5822 13.4011C12.1583 13.8443 11.744 14.2874 11.3394 14.7499C10.5494 15.6459 9.80756 16.5804 9.10427 17.5534C7.78439 19.3646 6.63792 21.3107 5.66488 23.3435C5.12536 24.4515 4.65329 25.5883 4.23902 26.754C2.7939 30.7329 2.01353 35.0201 2.01353 39.5C2.01353 40.29 2.0328 41.0704 2.08097 41.8411C2.15805 43.0068 2.28329 44.1629 2.45671 45.2901C2.51451 45.6755 2.58195 46.0512 2.64939 46.4173C3.35268 50.165 4.60512 53.7104 6.32963 56.9667C6.79207 57.8531 7.29305 58.7201 7.83256 59.5583C8.50695 60.6277 9.23914 61.6585 10.0099 62.6412C10.2026 62.8917 10.4049 63.1326 10.5976 63.3734C11.4068 64.3465 12.2546 65.2713 13.141 66.1577C18.2856 71.2349 24.8754 74.8381 32.2455 76.2832C33.4401 76.5144 34.654 76.6974 35.8776 76.813C37.0722 76.9287 38.2861 76.9865 39.5096 76.9865C39.8757 76.9865 40.2418 76.9768 40.5983 76.9672C40.8006 76.9576 41.0029 76.9576 41.2052 76.9383C42.0819 76.9094 42.949 76.842 43.8065 76.7456C44.0184 76.7263 44.2207 76.6974 44.4327 76.6685C52.1496 75.657 59.1248 72.2946 64.6259 67.333C65.1557 66.8513 65.676 66.3504 66.1866 65.8301C67.4583 64.5488 68.6433 63.1615 69.7127 61.6971C70.3582 60.8204 70.9651 59.9148 71.5335 58.9802C71.7262 58.672 71.9093 58.354 72.0923 58.0361C72.1694 57.9012 72.2465 57.7663 72.3139 57.6218C72.7763 56.8222 73.1906 56.0033 73.5663 55.1651C73.6338 55.0206 73.7012 54.8665 73.7687 54.722C75.8496 50.0687 76.9961 44.9144 76.9961 39.5C76.9961 36.1088 76.5433 32.8332 75.6955 29.7021ZM46.2632 32.6212H53.5369V45.8393H46.2632V32.6212Z" fill="black"/>
<path d="M75.6955 29.7021C75.4161 28.6616 75.0885 27.6404 74.7224 26.6384C74.2889 25.4341 73.7879 24.2491 73.2195 23.1027C73.1713 22.9774 73.1039 22.8618 73.0461 22.7366C72.6511 21.937 72.2272 21.1662 71.7648 20.4148C71.7069 20.2992 71.6299 20.1835 71.5624 20.0679C71.1 19.2779 70.6087 18.5361 70.0884 17.8039H70.0788C70.0788 17.8039 70.0788 17.775 70.0595 17.7654C69.3562 16.7731 68.6048 15.8289 67.8051 14.9137C67.7955 14.904 67.7859 14.8848 67.7762 14.8751C67.3523 14.3934 66.9284 13.9213 66.4852 13.4685C66.2637 13.247 66.0421 13.0157 65.8109 12.7941C59.4041 6.46452 50.7238 2.43744 41.0993 2.03281C40.9451 2.02317 40.791 2.02317 40.6368 2.02317C40.4634 2.01354 40.29 2.01354 40.1069 2.01354C39.9143 2.00391 39.7119 2.00391 39.5096 2.00391C38.8352 2.00391 38.1609 2.02317 37.4961 2.06171C32.284 2.3411 27.3513 3.67061 22.9196 5.85756C22.3705 6.13695 21.831 6.41635 21.2915 6.715C18.3338 8.36244 15.6266 10.3952 13.2277 12.7556C13.0061 12.9676 12.7941 13.1891 12.5822 13.4011C12.1583 13.8443 11.744 14.2874 11.3394 14.7499C10.5494 15.6459 9.80756 16.5804 9.10427 17.5534C7.78439 19.3646 6.63792 21.3107 5.66488 23.3435C5.12536 24.4515 4.65329 25.5883 4.23902 26.754C2.7939 30.7329 2.01353 35.0201 2.01353 39.5C2.01353 40.29 2.0328 41.0704 2.08097 41.8411C2.15805 43.0068 2.28329 44.1629 2.45671 45.2901C2.51451 45.6755 2.58195 46.0512 2.64939 46.4173C3.35268 50.165 4.60512 53.7104 6.32963 56.9667C6.79207 57.8531 7.29305 58.7201 7.83256 59.5583C8.50695 60.6277 9.23914 61.6585 10.0099 62.6412C10.2026 62.8917 10.4049 63.1326 10.5976 63.3734C11.4068 64.3465 12.2546 65.2713 13.141 66.1577C18.2856 71.2349 24.8754 74.8381 32.2455 76.2832C33.4401 76.5144 34.654 76.6974 35.8776 76.813C37.0722 76.9287 38.2861 76.9865 39.5096 76.9865C39.8757 76.9865 40.2418 76.9768 40.5983 76.9672C40.8006 76.9576 41.0029 76.9576 41.2052 76.9383C42.0819 76.9094 42.949 76.842 43.8065 76.7456C44.0184 76.7263 44.2207 76.6974 44.4327 76.6685C52.1496 75.657 59.1248 72.2946 64.6259 67.333C65.1557 66.8513 65.676 66.3504 66.1866 65.8301C67.4583 64.5488 68.6433 63.1615 69.7127 61.6971C70.3582 60.8204 70.9651 59.9148 71.5335 58.9802C71.7262 58.672 71.9093 58.354 72.0923 58.0361C72.1694 57.9012 72.2465 57.7663 72.3139 57.6218C72.7763 56.8222 73.1906 56.0033 73.5663 55.1651C73.6338 55.0206 73.7012 54.8665 73.7687 54.722C75.8496 50.0687 76.9961 44.9144 76.9961 39.5C76.9961 36.1088 76.5433 32.8332 75.6955 29.7021ZM46.2632 32.6212H53.5369V45.8393H46.2632V32.6212Z" fill="white" stroke="black" stroke-miterlimit="10"/>
<path d="M30.7426 21.2529V57.7374H19.2105V33.8351H13.8443V21.2529H30.7426Z" fill="black"/>
<path d="M64.7029 26.3398L58.5371 21.2529H40.897L37.9296 24.1046L36.841 25.1548L34.2109 27.6789V50.0494L40.473 57.6315H58.1132L65.1654 50.0494V26.7251L64.7029 26.3398ZM46.2632 45.8393V32.6212H53.537V45.8393H46.2632Z" fill="black"/>
<path d="M53.537 32.6211H46.2632V45.8391H53.537V32.6211Z" fill="white" stroke="black" stroke-miterlimit="10"/>
</g>
<defs>
<clipPath id="clip0_4_356">
<rect width="79" height="79" fill="white"/>
</clipPath>
</defs>
</svg>
