<svg width="82" height="82" viewBox="0 0 82 82" fill="none" xmlns="http://www.w3.org/2000/svg">
<g clip-path="url(#clip0_4_366)">
<path d="M77.45 22.22C76.97 21.28 76.45 20.36 75.89 19.47C75.66 19.08 75.41 18.69 75.15 18.31C74.46 17.27 73.73 16.26 72.94 15.3C65.65 6.25 54.6 0.36 42.16 0C41.77 0 41.39 0 41 0C40.34 0 39.69 0.02 39.04 0.04C27.02 0.61 16.36 6.35 9.23 15.08C8.46 16.02 7.73 17 7.04 18.01C6.15 19.34 5.32 20.71 4.59 22.14C4.01 23.25 3.49 24.38 3.01 25.54C1.73 28.7 0.82 32.06 0.36 35.56C0.12 37.34 0 39.15 0 41C0 42.85 0.12 44.66 0.36 46.44C1.01 51.33 2.52 55.95 4.74 60.13C5.22 61.05 5.74 61.95 6.29 62.83C8.54 66.41 11.34 69.61 14.56 72.33C18.25 75.45 22.5 77.93 27.14 79.59C29.54 80.46 32.05 81.11 34.64 81.51C35.85 81.7 37.08 81.83 38.33 81.91C39.21 81.97 40.1 82 41 82H41.51C42.62 81.98 43.72 81.93 44.81 81.82C48.74 81.46 52.51 80.55 56.03 79.16H56.06C59.81 77.66 63.3 75.64 66.41 73.17C70.35 70.06 73.71 66.23 76.28 61.89C76.85 60.94 77.37 59.97 77.86 58.97C80.51 53.55 82 47.45 82 41C82 34.23 80.36 27.85 77.45 22.22ZM74.82 60.24C74.63 60.57 74.44 60.9 74.25 61.22C73.66 62.19 73.03 63.13 72.36 64.04C71.24 65.56 70.02 66.99 68.7 68.33C68.17 68.87 67.63 69.39 67.08 69.89C61.37 75.04 54.13 78.53 46.12 79.58C45.9 79.61 45.69 79.64 45.47 79.66C44.58 79.76 43.68 79.83 42.77 79.86C42.56 79.88 42.35 79.88 42.14 79.89C41.77 79.9 41.39 79.91 41.01 79.91C39.74 79.91 38.48 79.85 37.24 79.73C35.97 79.61 34.71 79.42 33.47 79.18C25.82 77.68 18.98 73.94 13.64 68.67C12.71 67.75 11.83 66.79 11 65.78C10.8 65.53 10.59 65.28 10.39 65.02C9.58 64 8.82 62.93 8.12 61.82C7.56 60.95 7.04 60.05 6.56 59.13C4.77 55.75 3.47 52.07 2.75 48.18C2.68 47.8 2.61 47.41 2.55 47.01C2.36 45.84 2.23 44.64 2.16 43.43C2.11 42.63 2.08 41.82 2.08 41C2.08 36.35 2.89 31.9 4.39 27.77C4.82 26.56 5.31 25.38 5.87 24.23C6.88 22.12 8.07 20.1 9.44 18.22C10.17 17.21 10.94 16.24 11.76 15.31C12.18 14.83 12.62 14.36 13.06 13.91C13.28 13.68 13.5 13.45 13.73 13.24C16.22 10.79 19.03 8.68 22.1 6.97C22.65 6.66 23.22 6.36 23.79 6.08C28.39 3.81 33.51 2.43 38.92 2.14C39.61 2.1 40.31 2.08 41.01 2.08C41.22 2.08 41.43 2.08 41.63 2.09C41.82 2.09 42 2.09 42.18 2.1C42.34 2.1 42.5 2.1 42.66 2.11C52.65 2.53 61.66 6.71 68.31 13.28C68.55 13.51 68.78 13.75 69.01 13.98C69.46 14.46 69.91 14.94 70.34 15.44C70.35 15.44 70.36 15.47 70.37 15.48H70.38C71.2 16.43 71.98 17.41 72.71 18.44C72.72 18.44 72.73 18.47 72.74 18.48C73.28 19.24 73.79 20.01 74.27 20.82C74.34 20.95 74.42 21.07 74.48 21.19C74.96 21.97 75.4 22.77 75.81 23.6C75.87 23.73 75.94 23.85 76 23.98C76.58 25.17 77.1 26.4 77.56 27.65C77.94 28.69 78.28 29.75 78.57 30.83C79.44 34.08 79.91 37.48 79.91 41C79.91 46.62 78.72 51.97 76.56 56.8C76.49 56.95 76.42 57.11 76.35 57.26C75.96 58.13 75.53 58.97 75.06 59.8C74.98 59.96 74.9 60.1 74.82 60.24Z" fill="black"/>
<path d="M78.57 30.83C78.28 29.75 77.94 28.69 77.56 27.65C77.11 26.4 76.59 25.17 76 23.98C75.95 23.85 75.88 23.73 75.82 23.6C75.41 22.77 74.97 21.97 74.49 21.19C74.43 21.07 74.35 20.95 74.28 20.83C73.8 20.01 73.29 19.24 72.75 18.48H72.74C72.74 18.48 72.74 18.45 72.72 18.44C71.99 17.41 71.21 16.43 70.38 15.48C70.37 15.47 70.36 15.45 70.35 15.44C69.91 14.94 69.47 14.45 69.01 13.98C68.78 13.75 68.55 13.51 68.31 13.28C61.66 6.70996 52.65 2.52996 42.66 2.10996C42.5 2.09996 42.34 2.09996 42.18 2.09996C42 2.08996 41.82 2.08996 41.63 2.08996C41.43 2.07996 41.22 2.07996 41.01 2.07996C40.31 2.07996 39.61 2.09996 38.92 2.13996C33.51 2.42996 28.39 3.80996 23.79 6.07996C23.22 6.36996 22.66 6.65996 22.1 6.96996C19.03 8.67996 16.22 10.79 13.73 13.24C13.5 13.46 13.28 13.69 13.06 13.91C12.62 14.37 12.19 14.83 11.77 15.31C10.95 16.24 10.18 17.21 9.44997 18.22C8.07997 20.1 6.88997 22.12 5.87997 24.23C5.31997 25.38 4.82997 26.56 4.39997 27.77C2.89997 31.9 2.08997 36.35 2.08997 41C2.08997 41.82 2.10997 42.63 2.15997 43.43C2.23997 44.64 2.36997 45.84 2.54997 47.01C2.60997 47.41 2.67997 47.8 2.74997 48.18C3.47997 52.07 4.77997 55.75 6.56997 59.13C7.04997 60.05 7.56997 60.95 8.12997 61.82C8.82997 62.93 9.58997 64 10.39 65.02C10.59 65.2799 10.8 65.53 11 65.78C11.84 66.79 12.72 67.75 13.64 68.67C18.98 73.9399 25.82 77.68 33.47 79.18C34.71 79.42 35.97 79.61 37.24 79.73C38.48 79.85 39.74 79.91 41.01 79.91C41.39 79.91 41.77 79.9 42.14 79.89C42.35 79.88 42.56 79.88 42.77 79.86C43.68 79.83 44.58 79.76 45.47 79.66C45.69 79.64 45.9 79.61 46.12 79.58C54.13 78.53 61.37 75.04 67.08 69.89C67.63 69.39 68.17 68.87 68.7 68.33C70.02 67 71.25 65.56 72.36 64.04C73.03 63.13 73.66 62.19 74.25 61.22C74.45 60.9 74.64 60.57 74.83 60.24C74.91 60.1 74.99 59.96 75.06 59.81C75.54 58.98 75.97 58.13 76.36 57.26C76.43 57.11 76.5 56.95 76.57 56.8C78.73 51.97 79.92 46.62 79.92 41C79.92 37.48 79.45 34.08 78.57 30.83ZM48.02 33.86H55.57V47.58H48.02V33.86Z" fill="black"/>
<path d="M78.57 30.83C78.28 29.75 77.94 28.69 77.56 27.65C77.11 26.4 76.59 25.17 76 23.98C75.95 23.85 75.88 23.73 75.82 23.6C75.41 22.77 74.97 21.97 74.49 21.19C74.43 21.07 74.35 20.95 74.28 20.83C73.8 20.01 73.29 19.24 72.75 18.48H72.74C72.74 18.48 72.74 18.45 72.72 18.44C71.99 17.41 71.21 16.43 70.38 15.48C70.37 15.47 70.36 15.45 70.35 15.44C69.91 14.94 69.47 14.45 69.01 13.98C68.78 13.75 68.55 13.51 68.31 13.28C61.66 6.70996 52.65 2.52996 42.66 2.10996C42.5 2.09996 42.34 2.09996 42.18 2.09996C42 2.08996 41.82 2.08996 41.63 2.08996C41.43 2.07996 41.22 2.07996 41.01 2.07996C40.31 2.07996 39.61 2.09996 38.92 2.13996C33.51 2.42996 28.39 3.80996 23.79 6.07996C23.22 6.36996 22.66 6.65996 22.1 6.96996C19.03 8.67996 16.22 10.79 13.73 13.24C13.5 13.46 13.28 13.69 13.06 13.91C12.62 14.37 12.19 14.83 11.77 15.31C10.95 16.24 10.18 17.21 9.44997 18.22C8.07997 20.1 6.88997 22.12 5.87997 24.23C5.31997 25.38 4.82997 26.56 4.39997 27.77C2.89997 31.9 2.08997 36.35 2.08997 41C2.08997 41.82 2.10997 42.63 2.15997 43.43C2.23997 44.64 2.36997 45.84 2.54997 47.01C2.60997 47.41 2.67997 47.8 2.74997 48.18C3.47997 52.07 4.77997 55.75 6.56997 59.13C7.04997 60.05 7.56997 60.95 8.12997 61.82C8.82997 62.93 9.58997 64 10.39 65.02C10.59 65.2799 10.8 65.53 11 65.78C11.84 66.79 12.72 67.75 13.64 68.67C18.98 73.9399 25.82 77.68 33.47 79.18C34.71 79.42 35.97 79.61 37.24 79.73C38.48 79.85 39.74 79.91 41.01 79.91C41.39 79.91 41.77 79.9 42.14 79.89C42.35 79.88 42.56 79.88 42.77 79.86C43.68 79.83 44.58 79.76 45.47 79.66C45.69 79.64 45.9 79.61 46.12 79.58C54.13 78.53 61.37 75.04 67.08 69.89C67.63 69.39 68.17 68.87 68.7 68.33C70.02 67 71.25 65.56 72.36 64.04C73.03 63.13 73.66 62.19 74.25 61.22C74.45 60.9 74.64 60.57 74.83 60.24C74.91 60.1 74.99 59.96 75.06 59.81C75.54 58.98 75.97 58.13 76.36 57.26C76.43 57.11 76.5 56.95 76.57 56.8C78.73 51.97 79.92 46.62 79.92 41C79.92 37.48 79.45 34.08 78.57 30.83ZM48.02 33.86H55.57V47.58H48.02V33.86Z" fill="black" stroke="white" stroke-miterlimit="10"/>
<path d="M31.91 22.0601V59.9301H19.94V35.1201H14.37V22.0601H31.91Z" fill="white"/>
<path d="M67.16 27.3401L60.76 22.0601H42.45L39.37 25.0201L38.24 26.1101L35.51 28.7301V51.9501L42.01 59.8201H60.32L67.64 51.9501V27.7401L67.16 27.3401ZM48.02 47.5801V33.8601H55.57V47.5801H48.02Z" fill="white"/>
<path d="M55.57 33.86H48.02V47.58H55.57V33.86Z" fill="black" stroke="white" stroke-miterlimit="10"/>
</g>
<defs>
<clipPath id="clip0_4_366">
<rect width="82" height="82" fill="white"/>
</clipPath>
</defs>
</svg>
