<svg width="196" height="196" viewBox="0 0 196 196" fill="none" xmlns="http://www.w3.org/2000/svg">
<g clip-path="url(#clip0_63_252)">
<path d="M98 196C152.124 196 196 152.124 196 98C196 43.8761 152.124 0 98 0C43.8761 0 0 43.8761 0 98C0 152.124 43.8761 196 98 196Z" fill="#F7931A"/>
<path d="M123.817 44.1L119.529 61.5072C132.784 66.1377 142.541 73.0835 140.636 85.946C140.085 89.8537 138.737 93.7676 135.957 96.726C133.574 99.2801 129.85 100.634 126.671 101.675C122.859 102.964 118.873 103.664 114.85 103.751C112.155 103.751 109.533 103.672 106.838 103.433C102.477 103.108 98.0306 102.71 93.7492 101.755C92.4017 101.436 91.1278 101.197 89.9395 100.873L84.1452 124.27L80.7336 137.047L76.4461 154.54L65.8989 151.906L70.266 134.254C67.8038 133.617 65.2619 132.9 62.7261 132.257L49 128.827L54.2369 116.761C54.2369 116.761 62.0156 118.843 61.9299 118.684C64.9495 119.401 66.2174 117.404 66.7686 116.13L72.7221 92.169L75.4968 81.0705L78.6756 68.2937C78.8288 66.0581 78.0386 63.1855 73.7511 62.1442C73.9104 62.0646 66.0581 60.2271 66.0581 60.2271L68.8327 48.8897L83.349 52.5647C85.5785 53.116 87.7958 53.5999 90.0988 54.1573L94.3862 36.75L104.933 39.3837L100.732 56.4725C103.506 57.1156 106.367 57.7526 109.141 58.4692L113.264 41.4601L123.817 44.1ZM122.947 107.188C125.881 106.704 129.452 105.509 131.988 104.468C132.067 104.388 132.233 104.388 132.306 104.309C137.782 109.178 140.397 117.085 136.826 127.228C131.191 143.68 117.631 145.034 99.6966 141.604L95.3356 159.25L84.8619 156.616L88.9044 139.766L89.0636 139.209L92.2425 126.267C101.602 128.349 114.219 129.703 116.595 119.958C117.869 114.77 115.407 111.016 111.438 108.302L115.567 108.057C118.507 107.904 120.007 107.665 122.947 107.181V107.188ZM119.848 85.7806C122.947 73.2428 103.739 70.5294 97.7979 68.9369L92.5549 90.1723C98.5084 91.6913 116.914 97.7611 119.848 85.7806Z" fill="#FEFEFE"/>
</g>
<defs>
<clipPath id="clip0_63_252">
<rect width="196" height="196" fill="white"/>
</clipPath>
</defs>
</svg>
