<svg width="196" height="196" viewBox="0 0 196 196" fill="none" xmlns="http://www.w3.org/2000/svg">
<g clip-path="url(#clip0_63_257)">
<path d="M98 196C152.124 196 196 152.124 196 98C196 43.8761 152.124 0 98 0C43.8761 0 0 43.8761 0 98C0 152.124 43.8761 196 98 196Z" fill="#26A17B"/>
<path fill-rule="evenodd" clip-rule="evenodd" d="M109.773 106.471V106.459C109.099 106.508 105.626 106.716 97.8779 106.716C91.6916 106.716 87.3368 106.532 85.8055 106.459V106.477C61.9915 105.43 44.2168 101.283 44.2168 96.3218C44.2168 91.3666 61.9915 87.22 85.8055 86.1543V102.349C87.3613 102.459 91.8203 102.722 97.982 102.722C105.375 102.722 109.081 102.416 109.773 102.355V86.1665C133.538 87.2261 151.27 91.3728 151.27 96.3218C151.27 101.283 133.538 105.417 109.773 106.471ZM109.773 84.4821V69.9904H142.933V47.8914H52.6448V69.9904H85.8055V84.476C58.8555 85.7133 38.5879 91.0543 38.5879 97.4488C38.5879 103.843 58.8555 109.178 85.8055 110.422V156.861H109.773V110.409C136.68 109.172 156.898 103.837 156.898 97.4488C156.898 91.0604 136.68 85.7255 109.773 84.4821Z" fill="white"/>
</g>
<defs>
<clipPath id="clip0_63_257">
<rect width="196" height="196" fill="white"/>
</clipPath>
</defs>
</svg>
